<svg width="37" height="59" viewBox="0 0 37 59" fill="none" xmlns="http://www.w3.org/2000/svg">
<g clip-path="url(#clip0_1_10)">
<path d="M36.6229 49.5084L26.3549 18.7649V6.54457C27.1914 6.44441 27.9578 6.03075 28.4976 5.3881C29.0374 4.74544 29.3098 3.9223 29.2592 3.08682C29.2086 2.25135 28.8388 1.46659 28.2253 0.892878C27.6118 0.319165 26.801 -0.000209412 25.9585 1.03019e-07H11.0416C10.1993 0.000353985 9.38882 0.320125 8.77578 0.894015C8.16275 1.4679 7.79336 2.25262 7.74304 3.08793C7.69273 3.92323 7.96529 4.74611 8.50506 5.38852C9.04483 6.03094 9.8111 6.44444 10.6474 6.54457V18.7649L0.377909 49.5084C0.0154488 50.5932 -0.0824683 51.7481 0.0922176 52.8779C0.266904 54.0077 0.709197 55.0801 1.38269 56.0069C2.05618 56.9337 2.94162 57.6883 3.9661 58.2087C4.99059 58.7291 6.12483 59.0003 7.27546 59H29.7261C30.8767 59.0001 32.0108 58.7288 33.0352 58.2084C34.0596 57.688 34.9449 56.9334 35.6183 56.0066C36.2917 55.0798 36.734 54.0075 36.9086 52.8777C37.0833 51.748 36.9853 50.5932 36.6229 49.5084Z" fill="#030308"/>
<path d="M33.5078 54.4931C33.0789 55.0917 32.5115 55.579 31.8533 55.9141C31.1952 56.2492 30.4656 56.4223 29.7261 56.4188H7.27544C6.53697 56.4187 5.80907 56.2445 5.15162 55.9104C4.49417 55.5763 3.92596 55.0919 3.49375 54.4971C3.06154 53.9022 2.77768 53.2139 2.66551 52.4889C2.55334 51.7638 2.61608 51.0226 2.84857 50.3263L13.1834 19.3815C13.2271 19.2502 13.2494 19.1127 13.2495 18.9744V6.56818H23.7506V18.9744C23.7506 19.1127 23.7729 19.2502 23.8166 19.3815L34.15 50.3226C34.3871 51.018 34.4525 51.7598 34.3407 52.4856C34.229 53.2114 33.9433 53.8999 33.5078 54.4931Z" fill="#030308"/>
<path d="M28.6043 33.7133L34.15 50.3226C34.3831 51.0189 34.4464 51.7602 34.3348 52.4856C34.2231 53.2109 33.9396 53.8995 33.5077 54.4948C33.0757 55.09 32.5076 55.5748 31.8502 55.9093C31.1927 56.2438 30.4647 56.4184 29.7261 56.4188H7.27544C6.53697 56.4187 5.80907 56.2445 5.15162 55.9104C4.49417 55.5763 3.92596 55.0919 3.49375 54.4971C3.06154 53.9022 2.77768 53.2139 2.66551 52.4889C2.55334 51.7638 2.61608 51.0226 2.84857 50.3263L10.0498 28.7809L28.6043 33.7133Z" fill="#1D202D"/>
</g>
<defs>
<clipPath id="clip0_1_10">
<rect width="37" height="59" fill="white"/>
</clipPath>
</defs>
</svg>
